<?xml version="1.0" encoding="UTF-8"?>
<svg id="Layer_2" data-name="Layer 2" xmlns="http://www.w3.org/2000/svg" viewBox="0 0 565.44 130.26">
  <g id="Layer_1-2" data-name="Layer 1">
    <g>
      <path d="M388.47,128.21c-4.83-.09-7.42.23-10.51-1.02-6.37-2.57-6.82-8.46-6.56-13.74.84-17.43-1.72-41.85-8.22-63.16-2.16-7.08-7.72-23.76-7.53-28.65.34-8.89,5.78-13.07,19.36-17.11,8.62-2.57,54.37-12.38,67.39,18.88,2.63,6.33,3.12,25.86-12.11,32.3-3.5,1.48-6.9,1.93-8.33,2.94-.85.6.42.87.75.86l4.78-.15,4.73.13c7.89.22,15.49,5.3,18.96,11.02,17.62,29.05-10.73,58.65-62.69,57.7ZM398.85,47.82c5.52.46,10.1-6.97,7.15-13.24-1.72-3.65-4.54-7.21-9.64-4.75-3,1.45-2.6,5.61-2.17,8.79.45,3.31,1.31,8.91,4.66,9.19ZM405.97,96.34c9.95,2.31,11.8-4.54,9.52-12.61-.77-2.74-2.55-5.04-5.75-6.44-2.21-.96-5.24-.69-6.52,1.11-1.32,1.86-1.32,4.03-1.01,6.06l1.39,9.01c.15.99,1.07,2.56,2.37,2.86Z"/>
      <path d="M323.58,81.52c-5.18,1.09-2.97,13.38-2.15,17.87,1.37,7.52,8.16,28.39-12.68,28.4-5.93,0-27.82,1.98-29.29-7.78-.45-2.97-.2-3.96-.44-7.1-1.58-21.02,8.44-74.98,10.09-84.92,2.7-16.18,12.26-22.84,19.8-23.98l15.31-2.46c15.01-1.74,21.02,6.88,24.63,13.62,1.88,3.51,11.58,37.45,14.3,48.96,1.98,8.38,3.28,16.5,4.23,24.97.68,6.03.47,11.78.81,17.78.99,17.54.57,21.33-19.85,21.33-12.52-.47-26.24.57-22.08-17.44,0,0,4.91-30.86-2.7-29.25ZM325.03,40.13c-.54-.84-1.73-1.85-2.92-1.86-3.95-.04-5.22,6.42-5.79,9.93-.46,2.85-.54,5.77,1.08,8.36.71,1.12,2.34,2,3.55,2.1,8.47.65,9.1-10.65,4.08-18.52Z"/>
      <path d="M192.1,89.91c-.2-3.67,1.37-9.7-5.92-8.09-2.4.53-2.3,4.37-1.65,6.57l1.24,4.19c2.33,7.9,8.05,32.85,1.05,35.23-14.03.42-37.45,4.39-33.67-10.47,7.04-27.75,5.09-36.12,3.4-50.39-2.16-18.27-6.21-35.9-6.21-35.9-2.27-12-2.85-20.99,7.67-25.24,3.09-1.25,6.44-2.22,10.04-2.47,11.8-.84,24.03-1.05,35.74-.74,11.63.31,20.69,4.46,25.54,11.51,6.5,9.46,7.03,35.76-.09,44.95-5.55,7.15-15.44,6.43-24.12,5.48-2.44-.27-5,.25-3.97,2.74.41.98,1.73,1.26,2.22,1.27l7.49.51c20.82.14,22.11,6.42,22.1,14.04-.02,14.37-3.23,30.51,2.38,38.04,2.6,3.49-6.78,7.1-13.91,7.1s-18.1.43-23.27-1.36c-8.04-2.78-4.81-14.28-6.06-36.96ZM200.32,45.51c1.51-5.7,0-13.48-10.53-10.95-3.78.91-3.92,4.71-3.93,6.59,0,2.93.14,8.96,4.76,9.66,6.85,1.04,8.81-1.95,9.7-5.3Z"/>
      <path d="M1.33,13.68c1.69-4.76,5.77-9.05,12.31-9.6C58.88.33,46.61,14.24,39.45,41.83c-2.82,10.84-8.26,41.64-.83,41.62,8.48-.02,5.38-21.74,5.81-26.29l1.96-21.14c2.83-23.69,5.11-32.32,26.08-32.89,33.35-.92,19.75,30.8,14.89,40.81-5.06,10.41-8.84,20.53-13.1,31.09l-6.96,17.24c-2.12,5.26-12.23,30.34-18.76,33.13-4.63,2.25-12.68,2.91-19.14,2.53-6.64-.28-11.77-2.87-14.63-7.15-2.41-3.59-3.72-12.56-4.48-16.61-1.13-6.08-1.49-11.97-1.93-18.11-.77-10.86-2.45-21.38-4.95-32.1-1.05-4.47-5.62-30.26-2.06-40.28Z"/>
      <path d="M110.93,88.57c-5.66-.39,2.9,24.67-6.09,35.45-5.3,6.36-19.26,3.84-41.85,4.01-8.1.06-8.76-3.88-.99-14.87,6.99-13.17,9.74-22.39,14.17-33.27,0,0,9.94-27.11,15.78-37.56,4.22-7.55,5.68-17.58,6.01-26.32.21-5.49,6.64-9.15,10.97-10.8,6.38-2.43,13.9-2.74,20.79-1.27,9.99,2.13,13.56,9.54,15.41,16.74,1.22,4.79,5.08,29.19,8.19,48.34,2.09,12.86,2.63,39.46-6.2,52.21-3.07,4.44-7.28,7.19-12.95,7.11-18.05-.26-26.96-.05-20.81-24.14,1.26-4.92,5.58-15.09-2.43-15.64ZM115.72,67.44c7.28-.03,6.7-7.2,6.91-11.5.14-2.91,1.34-8.73-6.45-7.07-3.9.83-7.76,9.51-7.76,13.75,0,6.04,2.76,4.84,7.3,4.82Z"/>
      <path d="M536.89,71.52c4.04-.55,7.63-.9,11.51-.66,7.49.47,13.25,3.82,15.43,8.88,3,6.95,2.82,19.25-9.5,24.89-2.5,1.14-5.89.32-6.67-.53-7.26-7.86-19.05-10.21-31.4-8.9-3.52.37-18.81,4.49-27.25,1.17-12.99-5.1-6.36-24.88-3.82-33.39,3.57-11.96,5.67-17.1,10.07-45.29,4.23-21.54,23.95-16.66,35.23-17.41,32.68-2.16,33.55,8.36,33.58,10.59.08,7.2-1.62,10.64-4.51,14-3.26,3.77-9.02,5.77-15.44,5.47-5.35-.25-9.89-2.32-15.09-1.4-4.16.73-6.42,4.32-4.24,6.9,1.09,1.29,3.75,1.88,5.78,1.6l8.25-1.12c2.54-.35,5.11-.62,7.65-.55,5.44.16,11.24.89,12.44,5.5,1.6,6.17,1.03,14.32-3.66,19.98-5.43,6.56-11.23,4.54-17.78,3.62l-9.74-1.88c-5.2-.98-7.05.07-8.7,2.13-1.66,2.06-1.12,4.7,1.63,6.27,2.04,1.17,4.87,1.68,7.57,1.31l8.67-1.19Z"/>
      <path d="M493.7,125.93c-6.14-1.39-8.34-1.55-12.79-1.19-6.58.53-13.82,3.73-29.34,3.43-25.11-.51-16.82-5.37-4.04-15.17,8.18-6.28,10.8-14.76,11.6-22.5.34-3.3,2.6-18.86-14.83-30.41-5.14-2.94-3.86-7.5-2.27-11.02,2.04-4.53,8.34-17.3,1.74-28.45-3.01-5.08-6.58-9.19.7-15.69,7.82-6.99,21.14-4.34,32.25-4.42,17.75-.13,16.16,14.92,14.03,25.28-1.55,7.58-2.65,14.81-4.86,22.3-3.52,11.95-8.06,25.79-6.81,37.76.73,6.99,3.86,13.64,13.74,14.35,2.35.17,4.74.25,7.13-.06l11.41-1.47c5.75-.74,11.45-1.12,17.09-.11,4.76.85,10.91,2.4,14.1,5.22,5.6,4.96,10.91,13.9,3.26,21.7-7.29,7.42-31.31,5.11-52.13.46Z"/>
      <path d="M246.17,127.27c-7.94-2.56-12.55-18.18-11.51-28.25.71-6.88,1.86-23.1-3.1-27.05-4.78-3.81-4.26-6.19-2.29-7.98,4.81-4.38,7.79-14.89,8.36-25.84.52-9.87-7.61-25.28,3.12-31.43,8.16-4.68,15.92-4.55,23.53-4.6,9.93-.07,23.33,3.03,22.45,14.92-.88,11.79-11.67,73.1-11.59,82.12.12,13.06,2.25,20.71-.81,26.24-3.05,5.53-19.94,4.51-28.15,1.87Z"/>
    </g>
  </g>
</svg>